<svg id="eDFohBrGitS1" xmlns="http://www.w3.org/2000/svg" xmlns:xlink="http://www.w3.org/1999/xlink" viewBox="0 0 300 300" shape-rendering="geometricPrecision" text-rendering="geometricPrecision" project-id="3229e4763d85431490ee8f756137a07b" export-id="59e7e4b6de59435c85a25aca52f01aad" cached="false"><circle r="150" transform="translate(150 150)" fill="#5483cc"/><rect width="280" height="280" rx="40" ry="40" transform="translate(10 10)" fill="#5483cc"/><path d="M7.156227,99.914062L74.999764,87.484375L39.343626,114.316406c-3.937488,3.9375-1.148434,10.667969,4.417955,10.667969h86.991913c-3.687488-10.3125-5.753888-21.277344-5.753888-32.570312v-16.511719L78.230222,41.683594c-9.304658-6.203125-21.597588-5.472656-30.101467,1.792968L2.269524,88.921875c-4.835922,4.035156-1.347652,11.882813,4.886703,10.992187Zm217.526659,13.320313L185.362697,93.582031c-6.350551-3.17516-10.362407-9.665526-10.363248-16.765625v-14.332031h24.999921l10.972622,8.839844c2.343742,2.34375,5.52342,3.660156,8.839816,3.660156h12.097618c4.734473-.000309,9.062455-2.675439,11.179652-6.910156l5.589826-11.179688c2.116978-4.234681,1.66031-9.301897-1.179684-13.089844L218.386031,4.984375C216.022757,1.835938,212.319644,0,208.386062,0h-92.753614c-2.785147,0-4.179674,3.347656-2.21093,5.316406l24.078049,19.667969L114.226203,34.6875c-2.304681,1.152344-2.304681,4.4375,0,5.589844l23.273364,9.707031v42.429688c0,28.15625,14.074174,54.449218,37.499882,70.070312C98.597346,165.144531,40.406123,178.503906,5.42967,186.277344C2.257805,186.980469,0,189.796875,0,193.046875C0,196.875,3.105459,200,6.937478,200h194.952511c24.722578.003906,46.722509-18.578125,48.042817-43.265625.984372-18.46875-8.878878-35.3125-25.24992-43.5Zm-33.59755-87.355469l17.831975,4.457032c-1.074216,4.261718-4.871079,7.378906-9.425752,7.132812-5.062484-.277344-10.097624-4.894531-8.406223-11.589844Z" transform="translate(20 50)" fill="#faaf00"/><path d="M7.156227,99.914062L74.999764,87.484375L39.343626,114.316406c-3.937488,3.9375-1.148434,10.667969,4.417955,10.667969h86.991913c-3.687488-10.3125-5.753888-21.277344-5.753888-32.570312v-16.511719L78.230222,41.683594c-9.304658-6.203125-21.597588-5.472656-30.101467,1.792968L2.269524,88.921875c-4.835922,4.035156-1.347652,11.882813,4.886703,10.992187Zm217.526659,13.320313L185.362697,93.582031c-6.350551-3.17516-10.362407-9.665526-10.363248-16.765625v-14.332031h24.999921l10.972622,8.839844c2.343742,2.34375,5.52342,3.660156,8.839816,3.660156h12.097618c4.734473-.000309,9.062455-2.675439,11.179652-6.910156l5.589826-11.179688c2.116978-4.234681,1.66031-9.301897-1.179684-13.089844L218.386031,4.984375C216.022757,1.835938,212.319644,0,208.386062,0h-92.753614c-2.785147,0-4.179674,3.347656-2.21093,5.316406l24.078049,19.667969L114.226203,34.6875c-2.304681,1.152344-2.304681,4.4375,0,5.589844l23.273364,9.707031v42.429688c0,28.15625,14.074174,54.449218,37.499882,70.070312C98.597346,165.144531,40.406123,178.503906,5.42967,186.277344C2.257805,186.980469,0,189.796875,0,193.046875C0,196.875,3.105459,200,6.937478,200h194.952511c24.722578.003906,46.722509-18.578125,48.042817-43.265625.984372-18.46875-8.878878-35.3125-25.24992-43.5Zm-33.59755-87.355469l17.831975,4.457032c-1.074216,4.261718-4.871079,7.378906-9.425752,7.132812-5.062484-.277344-10.097624-4.894531-8.406223-11.589844Z" transform="translate(25 50)" fill="#f75"/></svg>
